<svg width="22" height="12" viewBox="0 0 22 12" fill="none" xmlns="http://www.w3.org/2000/svg">
<path d="M6.57552 11.2462C6.64581 11.1764 6.70161 11.0935 6.73969 11.0021C6.77776 10.9107 6.79737 10.8127 6.79737 10.7137C6.79737 10.6147 6.77776 10.5166 6.73969 10.4252C6.70161 10.3338 6.64581 10.2509 6.57552 10.1812L3.12552 6.73117L20.7805 6.73117C20.9794 6.73117 21.1702 6.65215 21.3108 6.5115C21.4515 6.37085 21.5305 6.18008 21.5305 5.98117C21.5305 5.78226 21.4515 5.59149 21.3108 5.45084C21.1702 5.31019 20.9794 5.23117 20.7805 5.23117L3.14052 5.23117L6.57552 1.80367C6.71521 1.66315 6.79361 1.47306 6.79361 1.27492C6.79361 1.07678 6.71521 0.886691 6.57552 0.746169C6.435 0.606481 6.24491 0.528074 6.04677 0.528074C5.84863 0.528074 5.65854 0.606481 5.51802 0.746169L0.748016 5.51617C0.683815 5.57777 0.632732 5.65171 0.597836 5.73355C0.562937 5.81539 0.544949 5.90345 0.544949 5.99242C0.544949 6.08139 0.562937 6.16944 0.597836 6.25129C0.632732 6.33313 0.683815 6.40707 0.748016 6.46867L5.51052 11.2462C5.58024 11.3165 5.66319 11.3723 5.75459 11.4103C5.84598 11.4484 5.94401 11.468 6.04302 11.468C6.14203 11.468 6.24005 11.4484 6.33145 11.4103C6.42284 11.3723 6.50579 11.3165 6.57552 11.2462Z" fill="#2D2926"/>
</svg>
