<svg width="48" height="48" viewBox="0 0 48 48" fill="none" xmlns="http://www.w3.org/2000/svg">
<path d="M48.0001 23.8563C48.0001 37.1905 37.2621 48 24.016 48C10.77 48 0.0318991 37.1905 0.0318991 23.8563C0.0318991 10.5221 -1.22201 0 12.024 0C25.2701 0 48.0001 10.5221 48.0001 23.8563Z" fill="#D8E1E6"/>
<path d="M48.0001 23.8563C48.0001 37.1905 37.2621 48 24.016 48C10.77 48 0.0318991 37.1905 0.0318991 23.8563C0.0318991 10.5221 -1.22201 0 12.024 0C25.2701 0 48.0001 10.5221 48.0001 23.8563Z" fill="#D8E1E6"/>
<path d="M48.0001 23.8563C48.0001 37.1905 37.2621 48 24.016 48C10.77 48 0.0318991 37.1905 0.0318991 23.8563C0.0318991 10.5221 -1.22201 0 12.024 0C25.2701 0 48.0001 10.5221 48.0001 23.8563Z" fill="#D8E1E6"/>
<path d="M48.0001 23.8563C48.0001 37.1905 37.2621 48 24.016 48C10.77 48 0.0318991 37.1905 0.0318991 23.8563C0.0318991 10.5221 -1.22201 0 12.024 0C25.2701 0 48.0001 10.5221 48.0001 23.8563Z" fill="black"/>
</svg>
