<svg xmlns="http://www.w3.org/2000/svg" width="137" height="148" fill="none"><path stroke="#292929" stroke-linecap="round" stroke-linejoin="round" d="M40.508 36.68h8.506l6.585-4.948 6.679 5.043 6.458-4.885 6.364 4.822 6.68-5.043 6.206 4.665h8.506m-78.353-3.72 11.783.536M19.84 13.04l11.846 7.124M34.836 1l5.987 10.18M6.198 68.39h124.604a5.2 5.2 0 0 1 5.198 5.2V141.8a5.199 5.199 0 0 1-5.198 5.201H6.198A5.2 5.2 0 0 1 1 141.799V73.59a5.2 5.2 0 0 1 5.198-5.2Zm7.656 11h18.777a2.647 2.647 0 0 1 2.647 2.648v10.969a2.647 2.647 0 0 1-2.647 2.647H13.854a2.647 2.647 0 0 1-2.646-2.647v-10.97a2.647 2.647 0 0 1 2.646-2.647Zm79.52 30.606c0 13.735-11.13 24.869-24.858 24.869-13.729 0-24.858-11.134-24.858-24.869s11.13-24.87 24.858-24.87 24.857 11.135 24.857 24.87Zm-24.858 17.871c-9.83 0-17.864-8.006-17.864-17.871 0-9.866 8.003-17.872 17.864-17.872 9.86 0 17.863 8.006 17.863 17.872 0 9.865-8.002 17.871-17.863 17.871Zm29.268-59.478H39.216l4.663-11.82h49.274l4.631 11.82Zm24.417 0h-11.783v-5.894c0-3.246 2.646-5.894 5.891-5.894s5.892 2.648 5.892 5.894v5.895ZM44.383 21.835h48.266a3.873 3.873 0 0 1 3.875 3.877V45.19a3.873 3.873 0 0 1-3.875 3.877H44.383a3.873 3.873 0 0 1-3.875-3.877V25.71a3.873 3.873 0 0 1 3.875-3.876Z"/></svg>