<svg xmlns="http://www.w3.org/2000/svg" width="130" height="137" fill="none"><path fill="#292929" d="m35.856 24.246.48.14.188-.64h-.668v.5Zm-9.423 32.148-.48-.14.48.14Zm7.853 25-.143.48.143-.48ZM54.373 64.66l-.48-.141.48.14Zm9.424-32.148.48.14.14-.478-.479-.142-.141.48ZM35.83 24.246v-.5h-3.456l3.314.98.142-.48ZM1.583 122.953l.14-.48-.477-.141-.143.478.48.143ZM1 124.911l-.48-.143-.142.481.48.142.142-.48ZM38.541 136l-.141.48.478.141.142-.478-.479-.143Zm.583-1.958.48.142.142-.48-.48-.142-.142.48ZM28.23 107.159l.48.14-.48-.14ZM45.931 1a.5.5 0 1 0-1 0h1Zm-9.594 8.63a.5.5 0 0 0 0 1v-1Zm8.594 9.631a.5.5 0 1 0 1 0h-1Zm9.594-8.63a.5.5 0 1 0 0-1v1Zm-43.45 13.564a.5.5 0 1 0-1 0h1Zm-9.594 8.63a.5.5 0 0 0 0 1v-1Zm8.594 9.631a.5.5 0 0 0 1 0h-1Zm9.594-8.63a.5.5 0 1 0 0-1v1ZM57.894 15.42l-.187-.464-.462.187.185.463.465-.186Zm12.464 31.105.464-.186-.464.186ZM91.965 61.25l.187.465.001-.001-.188-.464Zm5.421-25.636.464-.186-.464.186ZM84.923 4.51l.464-.186-.186-.466-.465.188.187.464Zm15.275 81.895-.464.185.464-.185Zm-8.258 27.824-.188-.463-.46.186.183.462.465-.185Zm.76 1.908-.465.185.186.466.466-.188-.187-.463Zm36.3-14.65.187.464.462-.187-.185-.462-.464.185Zm-.76-1.907.465-.186-.186-.466-.466.188.187.463Zm-25.154-14.32-.464.186v.001l.464-.187Zm-67.71-61.155-9.423 32.148.96.281 9.423-32.147-.96-.282Zm-9.423 32.148c-2.046 6.984-2.026 12.776-.473 17.139 1.558 4.377 4.652 7.29 8.663 8.482l.285-.959c-3.69-1.096-6.549-3.766-8.005-7.858-1.462-4.106-1.517-9.671.49-16.523l-.96-.28Zm8.19 25.621c4.024 1.192 8.198.436 11.87-2.395 3.658-2.821 6.795-7.683 8.84-14.68l-.96-.28c-2.007 6.865-5.05 11.515-8.491 14.168-3.429 2.644-7.272 3.325-10.974 2.228l-.284.96ZM54.854 64.8l9.424-32.147-.96-.282-9.423 32.148.96.281Zm9.085-32.768-27.966-8.265-.283.959 27.966 8.265.283-.959Zm-28.107-7.286h.025v-1h-.025v1Zm-3.04 56.216-.478-.145-.001.002-.002.008-.01.03-.034.115-.136.449c-.12.392-.293.966-.513 1.691-.438 1.45-1.059 3.508-1.787 5.934a2432.265 2432.265 0 0 0-5.068 17.082l.96.281a2427.63 2427.63 0 0 1 5.065-17.075 3210.244 3210.244 0 0 1 2.3-7.623l.135-.449.036-.115.008-.03.003-.007v-.002l-.478-.146Zm-8.029 25.166c-1.728 5.92-3.555 11.152-6.897 14.339-3.282 3.129-8.127 4.366-16.141 2.006l-.283.959c8.224 2.422 13.486 1.217 17.114-2.241 3.566-3.401 5.45-8.901 7.167-14.782l-.96-.281ZM1.103 122.81l-.582 1.958.958.286.583-1.959-.959-.285Zm-.245 2.581L38.4 136.48l.283-.96-37.541-11.088-.284.959Zm38.163 10.752.582-1.959-.958-.285-.583 1.958.959.286Zm.245-2.581c-8.014-2.372-11.415-6.049-12.483-10.466-1.088-4.498.2-9.889 1.928-15.797l-.96-.281c-1.716 5.868-3.1 11.515-1.94 16.313 1.18 4.879 4.947 8.756 13.171 11.19l.284-.959ZM28.71 107.299a2429.097 2429.097 0 0 1 5.066-17.075 3258.151 3258.151 0 0 1 2.47-8.187l.009-.03.002-.007v-.002l-.478-.145-.478-.146-.001.003-.002.007-.01.03-.034.115-.136.449c-.12.392-.293.966-.513 1.691-.438 1.451-1.059 3.508-1.787 5.934a2415.828 2415.828 0 0 0-5.068 17.083l.96.28Zm-.784-55.568h30.398v-1H27.927v1ZM44.931 1c0 4.786-3.855 8.63-8.594 8.63v1c5.293 0 9.594-4.294 9.594-9.63h-1Zm-8.594 9.63c4.762 0 8.594 3.869 8.594 8.631h1c0-5.309-4.274-9.63-9.594-9.63v1Zm9.594 8.631c0-4.786 3.856-8.63 8.594-8.63v-1c-5.292 0-9.594 4.294-9.594 9.63h1Zm8.594-9.63c-4.762 0-8.594-3.869-8.594-8.631h-1c0 5.31 4.275 9.63 9.594 9.63v-1Zm-44.45 14.564c0 4.786-3.855 8.63-8.594 8.63v1c5.293 0 9.594-4.293 9.594-9.63h-1Zm-8.594 9.63c4.762 0 8.594 3.869 8.594 8.631h1c0-5.309-4.274-9.63-9.594-9.63v1Zm9.594 8.631c0-4.786 3.856-8.63 8.594-8.63v-1c-5.293 0-9.594 4.294-9.594 9.63h1Zm8.594-9.63c-4.762 0-8.594-3.868-8.594-8.63h-1c0 5.308 4.274 9.63 9.594 9.63v-1Zm6.061-13.514a.909.909 0 0 1-.893.899v1a1.908 1.908 0 0 0 1.893-1.899h-1Zm-.893.899a.909.909 0 0 1-.893-.899h-1c0 1.037.855 1.899 1.893 1.899v-1Zm-.893-.899c0-.489.411-.899.893-.899v-1a1.908 1.908 0 0 0-1.893 1.899h1Zm.893-.899c.482 0 .893.41.893.899h1a1.908 1.908 0 0 0-1.893-1.899v1Zm-10.76-9.656a.909.909 0 0 1-.893.899v1a1.908 1.908 0 0 0 1.894-1.899h-1Zm-.893.899a.909.909 0 0 1-.893-.899h-1c0 1.037.855 1.899 1.893 1.899v-1Zm-.893-.899c0-.489.412-.899.893-.899v-1a1.908 1.908 0 0 0-1.893 1.9h1Zm.893-.899c.482 0 .894.41.894.9h1a1.908 1.908 0 0 0-1.894-1.9v1ZM5.186 54.461a.908.908 0 0 1-.893.899v1a1.908 1.908 0 0 0 1.893-1.9h-1Zm-.893.899a.908.908 0 0 1-.893-.9h-1c0 1.038.855 1.9 1.893 1.9v-1Zm-.893-.9c0-.488.411-.898.893-.898v-1A1.908 1.908 0 0 0 2.4 54.461h1Zm.893-.898c.482 0 .893.41.893.899h1a1.908 1.908 0 0 0-1.893-1.899v1ZM76.292 41.77a.909.909 0 0 1-.893.898v1a1.908 1.908 0 0 0 1.893-1.898h-1Zm-.893.898a.909.909 0 0 1-.894-.898h-1c0 1.037.856 1.898 1.894 1.898v-1Zm-.894-.898c0-.49.412-.9.894-.9v-1a1.908 1.908 0 0 0-1.894 1.9h1Zm.894-.9c.481 0 .893.41.893.9h1a1.908 1.908 0 0 0-1.893-1.9v1Zm7.226 12.217a.908.908 0 0 1-.894.9v1a1.908 1.908 0 0 0 1.894-1.9h-1Zm-.894.9a.908.908 0 0 1-.893-.9h-1c0 1.038.856 1.9 1.894 1.9v-1Zm-.893-.9c0-.488.412-.898.894-.898v-1a1.908 1.908 0 0 0-1.894 1.898h1Zm.894-.898c.481 0 .893.41.893.898h1a1.908 1.908 0 0 0-1.894-1.898v1ZM34.848 72.315a.909.909 0 0 1-.893.899v1a1.908 1.908 0 0 0 1.893-1.899h-1Zm-.893.899a.909.909 0 0 1-.893-.899h-1c0 1.037.855 1.899 1.893 1.899v-1Zm-.893-.899c0-.489.411-.899.893-.899v-1a1.908 1.908 0 0 0-1.893 1.899h1Zm.893-.899c.482 0 .893.41.893.899h1a1.908 1.908 0 0 0-1.893-1.899v1Zm9.987 2.272a.909.909 0 0 1-.893.9v1a1.908 1.908 0 0 0 1.894-1.9h-1Zm-.893.9a.909.909 0 0 1-.893-.9h-1c0 1.038.855 1.9 1.893 1.9v-1Zm-.893-.9c0-.488.411-.898.893-.898v-1a1.908 1.908 0 0 0-1.893 1.898h1Zm.893-.898c.482 0 .894.41.894.898h1a1.908 1.908 0 0 0-1.894-1.898v1Zm40.968-26.315a.909.909 0 0 1-.893.899v1a1.908 1.908 0 0 0 1.893-1.9h-1Zm-.893.899a.909.909 0 0 1-.894-.9h-1c0 1.038.856 1.9 1.894 1.9v-1Zm-.894-.9c0-.488.412-.898.894-.898v-1a1.908 1.908 0 0 0-1.894 1.899h1Zm.894-.898c.482 0 .893.41.893.899h1a1.908 1.908 0 0 0-1.893-1.9v1ZM42.55 64.202a.909.909 0 0 1-.893.899v1a1.908 1.908 0 0 0 1.893-1.9h-1Zm-.893.899a.909.909 0 0 1-.893-.9h-1c0 1.038.855 1.9 1.893 1.9v-1Zm-.893-.9c0-.488.411-.898.893-.898v-1a1.908 1.908 0 0 0-1.893 1.899h1Zm.893-.898c.482 0 .893.41.893.899h1a1.908 1.908 0 0 0-1.893-1.9v1ZM57.43 15.607l12.464 31.105.928-.372-12.463-31.105-.929.372Zm12.464 31.105c2.71 6.765 6.3 11.297 10.213 13.752 3.927 2.462 8.154 2.814 12.045 1.252l-.373-.928c-3.582 1.438-7.474 1.129-11.14-1.171-3.68-2.308-7.158-6.64-9.817-13.277l-.928.372Zm22.26 15.003c3.89-1.576 6.694-4.766 7.823-9.269 1.126-4.488.584-10.252-2.127-17.017l-.928.372c2.66 6.638 3.144 12.18 2.085 16.402-1.055 4.207-3.648 7.134-7.23 8.585l.376.927Zm5.696-26.286L85.387 4.324l-.928.372L96.922 35.8l.928-.372ZM84.736 4.046 57.707 14.957l.375.927L85.11 4.974l-.374-.928Zm5.76 57.79-.465.183v.002a4.31 4.31 0 0 1 .014.036l.044.112.171.437.645 1.646 2.267 5.77a3753.505 3753.505 0 0 0 6.562 16.568l.928-.37a3816.49 3816.49 0 0 1-6.56-16.565l-2.266-5.768-.644-1.645-.171-.437-.044-.113-.011-.028-.003-.007-.001-.002-.466.181Zm9.238 24.755c2.287 5.716 4.083 10.96 3.43 15.544-.641 4.502-3.673 8.493-11.412 11.631l.376.926c7.942-3.22 11.318-7.444 12.026-12.416.696-4.89-1.219-10.378-3.492-16.057l-.928.372Zm-8.258 27.823.76 1.908.928-.37-.76-1.908-.928.37Zm1.411 2.186 36.3-14.649-.374-.928-36.3 14.65.374.927Zm36.577-15.298-.759-1.908-.929.37.759 1.908.929-.37Zm-1.411-2.186c-7.751 3.125-12.687 2.358-16.251-.442-3.631-2.851-5.952-7.884-8.252-13.6l-.928.373c2.285 5.678 4.688 10.971 8.562 14.014 3.94 3.095 9.289 3.789 17.243.582l-.374-.927ZM103.55 85.075a3159.902 3159.902 0 0 1-6.56-16.555 4136.642 4136.642 0 0 1-2.91-7.422l-.171-.437a68.79 68.79 0 0 0-.044-.113l-.012-.028a.119.119 0 0 0-.003-.01l-.466.182-.466.182.001.002.003.007.011.029.044.113.171.437a3769.479 3769.479 0 0 0 9.474 23.984l.928-.371Zm-37.448-48.63h31.284v-1H66.102v1Z"/></svg>