<svg xmlns="http://www.w3.org/2000/svg" width="137" height="113" fill="none"><path fill="#292929" d="m133.52 74.98.469.17-.469-.17ZM57.049 47.023l.47.171-.47-.171ZM68.664 5.661a.5.5 0 1 0-.952-.305l.952.305Zm-3.529 9.373-.476-.152a.5.5 0 0 0 .1.48l.376-.328Zm8.883 10.975a.5.5 0 0 0 .755-.656l-.755.656Zm15.998-21.85.493.085a.5.5 0 0 0-.36-.568l-.133.482ZM78.517 1l.132-.482a.5.5 0 0 0-.332.024l.2.458Zm-7.886 3.439-.2-.459.2.459Zm-7.862 3.438-.2-.458a.5.5 0 0 0-.243.227l.443.231Zm-5.52 10.596-.444-.231a.5.5 0 0 0 .172.65l.272-.42Zm29.374 2.18a.5.5 0 0 0 .985.173l-.985-.173Zm-15.526 7.383a.5.5 0 1 0 .543-.84l-.543.84Zm2.214-25.12a.5.5 0 0 0-.426.905l.426-.905Zm8.818 4.706.498-.053a.5.5 0 0 0-.284-.399l-.214.452Zm1.004 14.088a.5.5 0 1 0 .995-.107l-.995.107Zm25.941 1.48c20.858 7.626 31.592 30.735 23.976 51.618l.939.343c7.806-21.4-3.195-45.085-24.571-52.9l-.344.94Zm23.976 51.618c-7.617 20.883-30.699 31.629-51.556 24.004l-.343.94c21.376 7.814 45.033-3.2 52.838-24.601l-.939-.343ZM81.494 98.812c-20.857-7.625-31.592-30.735-23.975-51.618l-.94-.342c-7.805 21.4 3.195 45.084 24.572 52.9l.343-.94ZM57.519 47.194c7.616-20.882 30.699-31.629 51.555-24.004l.344-.939c-21.377-7.815-45.033 3.2-52.839 24.6l.94.343Zm65.874 1.533c6.76 15.54-.326 33.634-15.845 40.4l.4.917c16.027-6.987 23.341-25.672 16.362-41.716l-.917.4Zm-15.845 40.4c-15.52 6.767-33.593-.325-40.351-15.863l-.917.399c6.979 16.045 25.642 23.369 41.668 16.381l-.4-.916ZM67.197 73.265c-6.76-15.54.326-33.634 15.845-40.4l-.4-.917C66.615 38.934 59.301 57.619 66.28 73.663l.917-.4Zm15.845-40.4c15.52-6.767 33.593.325 40.351 15.863l.917-.399c-6.979-16.045-25.642-23.369-41.668-16.381l.4.916Zm-9.3 62.66C66.404 105.238 54.77 111.5 41.68 111.5v1c13.418 0 25.342-6.421 32.861-16.372l-.798-.603ZM41.68 111.5C19.492 111.5 1.5 93.488 1.5 71.247h-1C.5 94.04 18.938 112.5 41.68 112.5v-1ZM1.5 71.247c0-22.24 17.992-40.252 40.205-40.252v-1C18.939 29.995.5 48.455.5 71.247h1Zm40.205-40.252c7.639 0 14.775 2.138 20.855 5.836l.52-.854a41.004 41.004 0 0 0-21.375-5.982v1Zm28.268 11.673c7.363 7.296 11.91 17.41 11.91 28.58h1c0-11.448-4.66-21.814-12.206-29.29l-.704.71Zm11.91 28.58c0 5.56-1.13 10.843-3.165 15.673l.921.389a41.227 41.227 0 0 0 3.245-16.063h-1Zm-15.647 18.42c-5.583 7.47-14.493 12.281-24.531 12.281v1c10.365 0 19.568-4.97 25.332-12.682l-.801-.598ZM41.705 101.95c-16.922 0-30.665-13.734-30.665-30.702h-1c0 17.52 14.19 31.702 31.665 31.702v-1ZM11.04 71.247c0-16.968 13.718-30.7 30.665-30.7v-1c-17.5 0-31.665 14.181-31.665 31.7h1Zm30.665-30.7c5.884 0 11.39 1.653 16.044 4.534l.526-.85c-4.81-2.977-10.497-4.685-16.57-4.685v1Zm23.58 11.077c4.43 5.313 7.084 12.154 7.084 19.623h1c0-7.71-2.74-14.776-7.315-20.263l-.768.64Zm7.084 19.623c0 3.185-.476 6.242-1.376 9.122l.954.299a31.48 31.48 0 0 0 1.422-9.42h-1ZM67.712 5.356l-3.053 9.526.953.305 3.052-9.526-.952-.305Zm-2.954 10.006 9.26 10.647.755-.656-9.26-10.647-.755.656Zm25.39-11.686L78.65.518l-.264.964L89.884 4.64l.264-.964ZM78.319.542 70.43 3.98l.4.917 7.886-3.439-.4-.916ZM70.43 3.98 62.57 7.42l.4.916 7.862-3.438-.4-.917Zm-8.104 3.666-5.52 10.596.886.462 5.52-10.596-.886-.462Zm25.282 13.18 2.9-16.582-.984-.172-2.9 16.581.984.173Zm-30.631-1.934 14.12 9.144.543-.84-14.12-9.143-.543.84Zm15.908-15.07 9.031 4.253.427-.905-9.032-4.254-.426.905Zm8.747 3.853 1.501 14.035.995-.107L82.627 7.57l-.995.106ZM57.45 18.931 90.216 4.617l-.4-.917-32.767 14.315.4.916Z"/></svg>