<svg xmlns="http://www.w3.org/2000/svg" width="118" height="104" fill="none"><g fill="#E7A9A9"><path d="M35.688 17.097c-.12-.12-.24-.22-.36-.319-1.1-1.036-1.4-1.374-1.4-2.29 0-.917.32-1.255 1.4-2.291.44-.418.94-.896 1.42-1.474.62-.737.52-1.832-.22-2.45a1.75 1.75 0 0 0-2.46.22c-.36.417-.74.796-1.16 1.174-1.219 1.156-2.498 2.37-2.498 4.82s1.26 3.646 2.499 4.82c.12.12.26.24.38.36 1.12 1.035 1.94 1.792 1.94 3.644 0 2.032-1.02 3.147-2.22 4.462-.12.12-.22.239-.34.378-.64.718-.58 1.813.14 2.47a1.75 1.75 0 0 0 2.46-.14c.099-.119.199-.238.319-.338 1.32-1.434 3.119-3.426 3.119-6.812s-1.76-5-3.06-6.194l.04-.04ZM60.1 9.23c-.12-.12-.24-.22-.36-.32-1.1-1.035-1.4-1.374-1.4-2.29 0-.916.32-1.255 1.4-2.29.44-.419.94-.897 1.42-1.475.62-.737.52-1.832-.22-2.45a1.75 1.75 0 0 0-2.46.22c-.36.418-.74.796-1.16 1.175-1.219 1.155-2.499 2.37-2.499 4.82s1.26 3.645 2.5 4.82c.12.12.26.24.38.359 1.12 1.035 1.939 1.792 1.939 3.645 0 2.031-1.02 3.147-2.22 4.461-.12.12-.22.24-.34.359-.64.717-.58 1.812.14 2.47a1.75 1.75 0 0 0 2.46-.14c.1-.12.2-.239.32-.358 1.32-1.434 3.119-3.426 3.119-6.812s-1.76-5-3.06-6.195h.04ZM84.511 17.097c-.12-.12-.24-.22-.36-.319-1.1-1.036-1.4-1.374-1.4-2.29 0-.917.32-1.255 1.4-2.291.44-.418.94-.896 1.42-1.474.62-.737.52-1.832-.22-2.45a1.75 1.75 0 0 0-2.46.22c-.359.417-.739.796-1.159 1.174-1.22 1.156-2.499 2.37-2.499 4.82s1.26 3.646 2.5 4.82c.12.12.26.24.38.36 1.119 1.035 1.939 1.792 1.939 3.644 0 2.032-1.02 3.147-2.22 4.462-.12.12-.22.239-.34.378-.64.718-.58 1.813.14 2.47a1.75 1.75 0 0 0 2.46-.14c.1-.119.2-.238.32-.338 1.319-1.434 3.118-3.426 3.118-6.812s-1.76-5-3.059-6.194l.04-.04ZM116.241 89.659H1.759C.8 89.659 0 90.436 0 91.412v4.182C0 100.236 3.779 104 8.437 104h101.126c4.658 0 8.437-3.765 8.437-8.406v-4.182c0-.956-.78-1.753-1.759-1.753Zm-1.76 5.935c0 2.71-2.219 4.92-4.938 4.92H8.437a4.922 4.922 0 0 1-4.918-4.92v-2.45H114.5v2.45h-.02ZM90.83 52.073c-7.058-6.772-15.935-11.035-25.472-12.35l3.399-3.385a3.549 3.549 0 0 0 .78-3.884 3.57 3.57 0 0 0-3.3-2.191H51.763c-1.46 0-2.76.856-3.3 2.19a3.513 3.513 0 0 0 .78 3.885l3.4 3.386c-9.558 1.315-18.435 5.597-25.492 12.37-8.577 8.245-13.556 19.3-14.015 31.131-.04.956.72 1.773 1.679 1.813h.06c.94 0 1.72-.737 1.76-1.673.42-10.935 5.018-21.133 12.935-28.762 7.377-7.071 16.914-11.214 27.05-11.772.18 0 .38 0 .56-.02.22 0 .44 0 .66-.02h2.34c.22 0 .44 0 .66.02.18 0 .36 0 .56.02a42.318 42.318 0 0 1 27.05 11.752c7.917 7.589 12.516 17.787 12.956 28.722.04.956.859 1.713 1.819 1.673a1.755 1.755 0 0 0 1.679-1.813c-.479-11.83-5.458-22.866-14.035-31.092h-.04ZM60.8 39.326h-3.62l-5.477-5.458s-.04-.04 0-.08c0-.04.04-.04.06-.04h14.474s.04 0 .06.04v.08l-5.478 5.458h-.02Z"/></g></svg>