<svg xmlns="http://www.w3.org/2000/svg" width="107" height="117" fill="none"><g fill="#E7A9A9"><path d="m30.3 75.145-1.543-17.329a2.477 2.477 0 0 0-2.472-2.26H4.075a2.477 2.477 0 0 0-2.473 2.26L.059 75.145c-.376 4.243 1.048 8.486 3.916 11.619C6.448 89.48 9.85 91.185 13.47 91.6v16.318a7.257 7.257 0 0 0-2.393 1.091L7.1 111.825a2.855 2.855 0 0 0-1.068 3.192A2.826 2.826 0 0 0 8.742 117h12.856a2.826 2.826 0 0 0 2.71-1.983c.375-1.189-.06-2.458-1.069-3.192l-3.975-2.815a6.873 6.873 0 0 0-2.393-1.091V91.601a15.256 15.256 0 0 0 9.493-4.837c2.868-3.133 4.292-7.376 3.916-11.62h.02ZM4.944 58.985h20.49l1.148 12.928H3.797l1.147-12.927Zm12.362 52.84 2.472 1.765h-9.197l2.473-1.765a3.727 3.727 0 0 1 2.116-.674 3.68 3.68 0 0 1 2.116.674h.02Zm6.546-27.361c-2.254 2.478-5.34 3.826-8.682 3.826a11.593 11.593 0 0 1-8.663-3.826c-2.255-2.479-3.323-5.67-3.026-9.002v-.099h23.398v.1c.296 3.33-.772 6.522-3.027 9ZM106.961 75.145l-1.543-17.329a2.478 2.478 0 0 0-2.472-2.26H80.735a2.477 2.477 0 0 0-2.473 2.26L76.72 75.145c-.376 4.243 1.048 8.486 3.916 11.619 2.472 2.716 5.874 4.421 9.493 4.837v16.318a7.257 7.257 0 0 0-2.393 1.091l-3.975 2.815a2.855 2.855 0 0 0-1.068 3.192 2.826 2.826 0 0 0 2.71 1.983h12.855a2.826 2.826 0 0 0 2.71-1.983c.376-1.189-.06-2.458-1.068-3.192l-3.976-2.815a6.873 6.873 0 0 0-2.393-1.091V91.601a15.257 15.257 0 0 0 9.494-4.837c2.868-3.133 4.292-7.376 3.916-11.62h.02Zm-25.356-16.16h20.49l1.147 12.928H80.458l1.147-12.927Zm12.361 52.84 2.473 1.765h-9.197l2.472-1.765a3.727 3.727 0 0 1 2.116-.674 3.68 3.68 0 0 1 2.117.674h.02Zm6.547-27.361c-2.255 2.478-5.34 3.826-8.683 3.826a11.593 11.593 0 0 1-8.663-3.826c-2.254-2.479-3.322-5.67-3.026-9.002v-.099h23.398v.1c.297 3.33-.771 6.522-3.026 9ZM65.17 43.402A20.49 20.49 0 0 1 60.5 30.415v-8.546h.238c1.8 0 3.283-1.467 3.283-3.291v-2.439a3.292 3.292 0 0 0-2.532-3.192V3.965A3.96 3.96 0 0 0 57.535 0h-8.01a3.96 3.96 0 0 0-3.956 3.965v8.962a3.292 3.292 0 0 0-2.532 3.192v2.44a3.292 3.292 0 0 0 3.284 3.29h.237v8.546a20.45 20.45 0 0 1-4.668 12.987c-3.52 4.263-5.439 9.656-5.439 15.187 0 .952.771 1.725 1.701 1.725s1.72-.773 1.72-1.725a20.45 20.45 0 0 1 4.669-12.986c3.52-4.263 5.439-9.656 5.439-15.188v-8.546h7.16v8.546a23.995 23.995 0 0 0 5.438 15.188 20.49 20.49 0 0 1 4.668 12.986v7.336h-16.1c-2.096 0-3.817 1.725-3.817 3.827v17.884c0 2.102 1.72 3.827 3.817 3.827h16.1v6.86c0 .952.771 1.725 1.72 1.725.95 0 1.721-.773 1.721-1.725V58.569a23.995 23.995 0 0 0-5.439-15.187l-.079.02ZM57.514 3.43c.297 0 .534.238.534.535v8.863h-9.098V3.965c0-.297.237-.535.534-.535h8.03ZM46.419 18.44v-2.162h14.162v2.161H46.419Zm20.767 69.612H51.087a.397.397 0 0 1-.396-.396V69.772c0-.218.178-.397.396-.397h16.1v18.677Z"/><path d="M68.907 104.588c-.95 0-1.7.773-1.7 1.725v4.085a3.042 3.042 0 0 1-3.027 3.033h-21.3a3.03 3.03 0 0 1-3.027-3.033V66.599c0-.951-.771-1.725-1.72-1.725-.95 0-1.702.774-1.702 1.725v43.799c0 3.568 2.888 6.463 6.448 6.463H64.18c3.56 0 6.448-2.895 6.448-6.463v-4.085c0-.952-.771-1.725-1.72-1.725Z"/></g></svg>