<svg xmlns="http://www.w3.org/2000/svg" width="105" height="117" fill="none"><g fill="#E7A9A9"><path d="M101.042 107.543h-2.47V86.548c0-2.914-2.411-5.293-5.365-5.293h-3.796c-.1-3.628-3.114-6.542-6.81-6.542H58.512v-2.756c0-.932-.784-1.705-1.728-1.705s-1.728.773-1.728 1.705v2.756H45.013c-.965 0-1.728.753-1.728 1.705 0 .951.783 1.705 1.728 1.705H82.6c1.788 0 3.255 1.387 3.355 3.132H28.7c.1-1.745 1.567-3.132 3.355-3.132h5.102c.965 0 1.728-.773 1.728-1.705s-.763-1.705-1.727-1.705h-5.103c-3.697 0-6.71 2.914-6.81 6.542h-3.797c-2.954 0-5.364 2.38-5.364 5.293v7.772c-1.628-.297-2.612-.892-3.175-2.34-.622-1.546-2.51-14.234-1.647-18.278.904-4.322 4.42-8.367 9.663-11.083 5.565-2.894 12.335-5.115 17.7-5.809 17.035-2.22 34.312 2.736 47.51 13.58l.342 1.369c.663 2.617 3.074 4.401 5.706 4.401.422 0 .864-.04 1.306-.139h.08c1.547-.377 2.853-1.308 3.676-2.637a5.784 5.784 0 0 0 .704-4.42L81.716 4.392C80.953 1.339 77.8-.564 74.705.15h-.1c-1.547.377-2.853 1.308-3.677 2.637a5.71 5.71 0 0 0-.703 4.42l.402 1.626A60.224 60.224 0 0 1 58.01 27.925c-5.505 5.65-11.974 10.13-19.226 13.342-2.11.932-4.34 1.646-6.71 2.4-1.929.614-3.938 1.248-5.846 2.021-3.777 1.507-8.659 3.629-13.058 6.642C6.64 56.81 2.2 62.699.675 68.944c-.944 3.885-.904 8.346.16 13.62.02.119 2.492 11.875 4.16 14.432 1.646 2.518 4.258 4.441 7.171 5.254.723.198 1.467.337 2.21.416.382.04.763.06 1.125.06h.563v4.817h-2.472c-2.19 0-3.977 1.765-3.977 3.926v1.625c0 2.161 1.788 3.906 3.977 3.906h87.43c2.19 0 3.978-1.764 3.978-3.906v-1.625c0-2.161-1.788-3.926-3.978-3.926h.02ZM73.882 4.571a2.352 2.352 0 0 1 1.526-1.07h.08c.181-.06.362-.08.543-.08 1.085 0 2.07.734 2.35 1.804l16.233 64.531a2.34 2.34 0 0 1-.282 1.824 2.352 2.352 0 0 1-1.526 1.07h-.08c-1.266.318-2.572-.475-2.894-1.724l-.482-1.903L74.142 8.576 73.6 6.395a2.328 2.328 0 0 1 .281-1.824ZM16.103 99.316h-.543c-.26 0-.522 0-.803-.04a10.924 10.924 0 0 1-1.607-.297 9.307 9.307 0 0 1-5.204-3.826c-.904-1.388-2.933-9.477-3.676-13.244-.944-4.778-1.005-8.763-.18-12.172C5.415 64.324 9.353 59.13 15.2 55.125c4.118-2.815 8.779-4.837 12.375-6.284 1.788-.714 3.736-1.328 5.605-1.923 2.35-.754 4.781-1.527 7.071-2.538 7.655-3.39 14.485-8.128 20.29-14.096a64.026 64.026 0 0 0 11.472-16.098L84.79 65.018c-13.4-9.556-30.114-13.759-46.608-11.617-5.826.753-12.877 3.072-18.844 6.185-6.147 3.212-10.326 8.089-11.43 13.422-1.005 4.797 1.024 18.22 1.827 20.222 1.346 3.35 4.179 4.242 6.389 4.54v1.526l-.02.02Zm84.958 14.274h-87.43a.515.515 0 0 1-.522-.515v-1.626c0-.278.221-.496.523-.496h59.666a1.704 1.704 0 1 0 0-3.41h-53.74V86.548c0-1.03.844-1.883 1.909-1.883h71.78c1.044 0 1.888.833 1.888 1.883v20.995H81.355a1.704 1.704 0 1 0 0 3.41h19.707c.282 0 .503.218.503.496v1.626a.511.511 0 0 1-.503.515Z"/><path d="M60.642 87.976a6.513 6.513 0 0 0-3.817 1.21 6.655 6.655 0 0 0-3.817-1.21c-3.616 0-6.57 2.914-6.57 6.483 0 7.077 9.363 10.785 9.764 10.923.201.08.422.119.623.119s.422-.039.623-.119c.402-.158 9.764-3.846 9.764-10.923 0-3.569-2.954-6.483-6.57-6.483Zm-3.797 13.957c-1.808-.833-6.93-3.589-6.93-7.474 0-1.686 1.386-3.073 3.113-3.073.965 0 1.849.436 2.451 1.19.322.416.824.654 1.366.654.543 0 1.025-.238 1.366-.655a3.117 3.117 0 0 1 2.451-1.19c1.708 0 3.114 1.388 3.114 3.074 0 3.588-4.52 6.383-6.91 7.474h-.02Z"/></g></svg>