<svg xmlns="http://www.w3.org/2000/svg" width="45" height="45" fill="none"><rect width="43.953" height="43.953" x=".523" y=".523" stroke="#E7A9A9" stroke-width="1.046" rx="21.977"/><path fill="#E7A9A9" d="M26.698 15c1.14 0 2.236.442 3.043 1.234A4.157 4.157 0 0 1 31 19.208v6.584C31 28.117 29.07 30 26.698 30h-8.397C15.929 30 14 28.117 14 25.792v-6.584C14 16.883 15.92 15 18.301 15h8.397Zm.962 4.333a.654.654 0 0 0-.477.167l-3.833 3c-.493.4-1.2.4-1.7 0l-3.825-3a.656.656 0 0 0-.85.058.628.628 0 0 0-.06.834l.111.108 3.867 2.958a2.706 2.706 0 0 0 1.658.567c.603 0 1.19-.2 1.665-.567l3.834-3.008.069-.067a.635.635 0 0 0-.01-.833.72.72 0 0 0-.45-.217Z"/></svg>